<svg xmlns="http://www.w3.org/2000/svg" width="120" height="120" viewBox="0 0 120 120" fill="none">
  <path d="M25 6c2.2 11.8 7.2 16.8 19 19-11.8 2.2-16.8 7.2-19 19-2.2-11.8-7.2-16.8-19-19 11.8-2.2 16.8-7.2 19-19Z" fill="#FFCC5C"/>
  <path d="M87 24c1.7 9 5.5 12.8 14.5 14.5C92.5 40.2 88.7 44 87 53c-1.7-9-5.5-12.8-14.5-14.5C81.5 36.8 85.3 33 87 24Z" fill="#B76BFF"/>
  <path d="M74 72c2.2 11.8 7.2 16.8 19 19-11.8 2.2-16.8 7.2-19 19-2.2-11.8-7.2-16.8-19-19 11.8-2.2 16.8-7.2 19-19Z" fill="#FF91A8"/>
  <circle cx="35" cy="84" r="5" fill="#FFD66E"/>
</svg>
